<?xml version="1.0" standalone="no"?>
<!DOCTYPE svg PUBLIC "-//W3C//DTD SVG 20010904//EN"
 "http://www.w3.org/TR/2001/REC-SVG-20010904/DTD/svg10.dtd">
<svg version="1.0" xmlns="http://www.w3.org/2000/svg"
 width="500.000000pt" height="500.000000pt" viewBox="0 0 500.000000 500.000000"
 preserveAspectRatio="xMidYMid meet">
<metadata>
Created by potrace 1.14, written by Peter Selinger 2001-2017
</metadata>
<g transform="translate(0.000000,500.000000) scale(0.100000,-0.100000)"
fill="#000000" stroke="none">
<path d="M3279 4300 c-149 -23 -331 -86 -444 -154 -371 -223 -591 -629 -571
-1056 18 -414 251 -785 616 -983 50 -28 205 -93 205 -87 0 1 7 -1 15 -4 58
-21 164 -38 276 -43 147 -7 280 10 413 53 88 29 270 116 309 149 15 13 56 47
92 77 57 48 92 85 195 211 l30 36 135 -30 c315 -70 353 -78 339 -65 -8 8 -39
35 -70 62 -134 118 -216 192 -253 225 l-40 36 22 74 c40 139 46 191 46 354 -1
139 -5 173 -27 258 -124 467 -475 793 -949 880 -87 16 -254 19 -339 7z"/>
<path d="M2330 4020 l-35 -7 40 -1 c22 0 49 3 60 8 18 8 18 9 -5 8 -14 0 -41
-4 -60 -8z"/>
<path d="M2523 4023 c15 -2 39 -2 55 0 15 2 2 4 -28 4 -30 0 -43 -2 -27 -4z"/>
<path d="M2135 3985 c-39 -17 -32 -17 30 0 30 8 40 14 25 14 -14 0 -38 -6 -55
-14z"/>
<path d="M1970 3940 c-51 -22 -46 -26 11 -8 22 6 39 15 39 20 0 10 4 11 -50
-12z"/>
<path d="M1790 3865 c-25 -13 -39 -24 -32 -25 14 0 92 38 92 45 0 9 -15 4 -60
-20z"/>
<path d="M1627 3773 c-20 -14 -35 -28 -33 -30 4 -4 86 46 86 53 0 9 -17 1 -53
-23z"/>
<path d="M1472 3655 c-20 -19 -34 -35 -30 -35 4 0 24 16 45 35 21 19 35 35 30
35 -4 0 -24 -16 -45 -35z"/>
<path d="M1331 3525 c-44 -50 -38 -56 9 -10 43 42 45 45 31 45 -5 0 -23 -16
-40 -35z"/>
<path d="M1217 3388 c-35 -48 -43 -68 -12 -33 28 32 49 65 41 65 -3 0 -16 -15
-29 -32z"/>
<path d="M1102 3210 c-12 -22 -19 -40 -15 -40 4 0 18 18 30 40 28 52 15 52
-15 0z"/>
<path d="M1036 3081 c-10 -16 -36 -91 -31 -91 6 0 46 93 41 97 -2 2 -7 0 -10
-6z"/>
<path d="M967 2893 c-3 -4 -8 -26 -11 -48 l-6 -40 14 45 c14 41 15 63 3 43z"/>
<path d="M1415 2879 c-120 -11 -157 -18 -260 -50 -299 -93 -544 -298 -688
-577 -61 -118 -82 -178 -108 -316 -44 -229 -19 -471 71 -680 l18 -42 -85 -90
c-46 -49 -119 -125 -162 -169 -116 -119 -128 -115 119 -42 47 14 124 38 171
52 l86 27 99 -99 c162 -164 335 -262 560 -319 95 -23 128 -27 259 -27 334 1
598 109 831 338 139 137 245 314 297 495 33 114 38 144 44 293 11 268 -61 508
-221 732 -104 145 -311 311 -478 382 -175 74 -377 108 -553 92z"/>
<path d="M4046 2039 c-2 -8 -9 -29 -15 -48 -6 -19 -9 -36 -6 -39 2 -3 6 1 9 9
2 8 9 29 15 48 6 19 9 36 6 39 -2 3 -6 -1 -9 -9z"/>
<path d="M3972 1820 c-11 -27 -18 -50 -14 -50 8 0 44 91 39 97 -2 2 -14 -19
-25 -47z"/>
<path d="M3887 1645 c-14 -25 -23 -45 -19 -45 10 0 56 79 50 85 -2 2 -16 -16
-31 -40z"/>
<path d="M3800 1511 c0 -5 -12 -23 -26 -40 -14 -17 -22 -31 -17 -31 5 0 18 12
29 28 32 43 36 52 25 52 -6 0 -11 -4 -11 -9z"/>
<path d="M3662 1337 c-18 -18 -32 -36 -32 -40 0 -8 22 13 54 51 29 33 14 27
-22 -11z"/>
<path d="M3549 1233 c-2 -4 -19 -20 -37 -35 -19 -16 -29 -28 -23 -28 16 0 77
57 70 65 -4 3 -9 3 -10 -2z"/>
<path d="M3367 1093 c-20 -14 -35 -28 -33 -30 6 -6 76 40 76 50 0 9 1 10 -43
-20z"/>
<path d="M3201 999 c-57 -30 -60 -43 -3 -15 28 15 52 29 52 31 0 8 -13 4 -49
-16z"/>
<path d="M3015 920 c-27 -10 -43 -19 -34 -19 18 -1 89 26 89 34 0 3 -1 5 -2 4
-2 0 -25 -9 -53 -19z"/>
<path d="M2832 870 c-48 -11 -54 -23 -7 -15 43 8 83 25 55 24 -8 -1 -30 -5
-48 -9z"/>
<path d="M2635 840 l-40 -7 48 -2 c26 0 47 4 47 9 0 6 -3 9 -7 9 -5 -1 -26 -5
-48 -9z"/>
<path d="M2403 833 c3 -3 27 -7 53 -9 27 -3 45 -1 41 3 -5 4 -28 8 -53 9 -25
1 -43 0 -41 -3z"/>
</g>
</svg>
